<?xml version="1.0" encoding="utf-8"?>
<!-- Generator: Adobe Illustrator 26.0.2, SVG Export Plug-In . SVG Version: 6.00 Build 0)  -->
<svg version="1.1" id="Layer_1" xmlns="http://www.w3.org/2000/svg" xmlns:xlink="http://www.w3.org/1999/xlink" x="0px" y="0px"
	 viewBox="0 0 600 478.18" style="enable-background:new 0 0 600 478.18;" xml:space="preserve">
<style type="text/css">
	.st0{opacity:0.8;}
	.st1{fill:#2A172D;}
</style>
<g class="st0">
	<path class="st1" d="M184.59,175.46v48.13h-26.91v45.28H97.52v-45.28H0v-43.38l58.58-133.3h62.06L66.17,175.46h31.35V130.5h60.16
		v44.96H184.59z"/>
	<path class="st1" d="M380.9,74.14c17.3,19.42,25.96,47.29,25.96,83.59c0,36.31-8.66,64.27-25.96,83.91
		c-17.31,19.63-42.01,29.45-74.09,29.45c-32.51,0-57.36-9.76-74.57-29.29c-17.21-19.52-25.8-47.54-25.8-84.06
		c0-36.3,8.6-64.17,25.8-83.59c17.2-19.42,42.06-29.13,74.57-29.13C338.89,45.01,363.59,54.73,380.9,74.14z M281.48,107.55
		c-5.07,9.82-7.6,26.55-7.6,50.18c0,23.64,2.53,40.42,7.6,50.34c5.07,9.92,13.51,14.88,25.33,14.88c11.61,0,19.89-4.96,24.86-14.88
		c4.96-9.92,7.44-26.7,7.44-50.34c0-23.64-2.48-40.37-7.44-50.18c-4.96-9.82-13.25-14.72-24.86-14.72
		C294.98,92.82,286.54,97.73,281.48,107.55z"/>
	<path class="st1" d="M600,175.46v48.13h-26.91v45.28h-60.16v-45.28h-97.52v-43.38l58.58-133.3h62.06l-54.46,128.55h31.35V130.5
		h60.16v44.96H600z"/>
</g>
<g>
	<path class="st1" d="M247.01,359.17c2.8,1.5,4.99,3.58,6.58,6.22c1.58,2.64,2.38,5.61,2.38,8.9c0,3.33-0.79,6.33-2.38,9
		c-1.58,2.67-3.78,4.77-6.58,6.29c-2.8,1.52-5.93,2.28-9.38,2.28c-3.49,0-6.62-0.76-9.41-2.28c-2.78-1.52-4.97-3.62-6.55-6.29
		c-1.58-2.67-2.38-5.67-2.38-9c0-3.29,0.79-6.26,2.38-8.9c1.58-2.64,3.77-4.71,6.55-6.22c2.78-1.5,5.92-2.26,9.41-2.26
		C241.08,356.91,244.21,357.66,247.01,359.17z M233.66,366.41c-1.26,0.8-2.27,1.9-3.02,3.29c-0.75,1.39-1.13,2.94-1.13,4.63
		s0.38,3.25,1.13,4.66c0.75,1.41,1.76,2.52,3.02,3.34c1.26,0.82,2.63,1.22,4.1,1.22c1.44,0,2.78-0.41,4.01-1.22
		c1.23-0.82,2.2-1.92,2.9-3.31c0.7-1.39,1.06-2.95,1.06-4.68c0-1.7-0.35-3.24-1.06-4.63c-0.7-1.39-1.66-2.49-2.88-3.29
		c-1.22-0.8-2.56-1.2-4.03-1.2C236.3,365.21,234.93,365.61,233.66,366.41z"/>
	<path class="st1" d="M285.22,359.17c2.8,1.5,4.99,3.58,6.58,6.22c1.58,2.64,2.38,5.61,2.38,8.9c0,3.33-0.79,6.33-2.38,9
		c-1.58,2.67-3.78,4.77-6.58,6.29c-2.8,1.52-5.93,2.28-9.38,2.28c-3.49,0-6.62-0.76-9.41-2.28c-2.78-1.52-4.97-3.62-6.55-6.29
		c-1.58-2.67-2.38-5.67-2.38-9c0-3.29,0.79-6.26,2.38-8.9c1.58-2.64,3.77-4.71,6.55-6.22c2.78-1.5,5.92-2.26,9.41-2.26
		C279.29,356.91,282.42,357.66,285.22,359.17z M271.87,366.41c-1.26,0.8-2.27,1.9-3.02,3.29c-0.75,1.39-1.13,2.94-1.13,4.63
		s0.38,3.25,1.13,4.66c0.75,1.41,1.76,2.52,3.02,3.34c1.26,0.82,2.63,1.22,4.1,1.22c1.44,0,2.78-0.41,4.01-1.22
		c1.23-0.82,2.2-1.92,2.9-3.31c0.7-1.39,1.06-2.95,1.06-4.68c0-1.7-0.35-3.24-1.06-4.63c-0.7-1.39-1.66-2.49-2.88-3.29
		c-1.22-0.8-2.56-1.2-4.03-1.2C274.5,365.21,273.14,365.61,271.87,366.41z"/>
	<path class="st1" d="M323.28,360.65c2.38,2.08,3.58,5.02,3.58,8.83c0,4-1.19,7.1-3.58,9.31s-5.75,3.31-10.1,3.31l-5.28,0.05v9.02
		h-9.98v-33.65h15.26C317.53,357.53,320.9,358.57,323.28,360.65z M316.18,373.23c0.82-0.8,1.22-1.95,1.22-3.46
		c0-1.47-0.41-2.6-1.22-3.38s-1.98-1.18-3.48-1.18h-4.8v9.22h4.8C314.2,374.43,315.36,374.03,316.18,373.23z"/>
	<path class="st1" d="M348.98,365.69c-2.14-0.74-3.91-1.1-5.28-1.1c-0.86,0-1.54,0.17-2.04,0.5s-0.74,0.82-0.74,1.46
		c0,0.9,0.48,1.59,1.44,2.09c0.96,0.5,2.48,1.03,4.56,1.61c2.37,0.67,4.32,1.35,5.86,2.04s2.87,1.74,4.01,3.14
		c1.14,1.41,1.7,3.26,1.7,5.57c0,2.34-0.62,4.31-1.85,5.93c-1.23,1.62-2.9,2.82-4.99,3.62c-2.1,0.8-4.44,1.2-7.03,1.2
		c-2.88,0-5.77-0.49-8.66-1.46s-5.4-2.31-7.51-4.01l3.74-7.58c1.7,1.47,3.77,2.71,6.22,3.72s4.55,1.51,6.31,1.51
		c1.09,0,1.94-0.21,2.54-0.62c0.61-0.42,0.91-1.01,0.91-1.78c0-0.93-0.5-1.64-1.49-2.14c-0.99-0.5-2.53-1.02-4.61-1.56
		c-2.34-0.61-4.27-1.24-5.81-1.9c-1.54-0.66-2.87-1.67-3.98-3.05c-1.12-1.38-1.68-3.18-1.68-5.42c0-2.18,0.58-4.07,1.73-5.69
		c1.15-1.62,2.78-2.86,4.87-3.72s4.54-1.3,7.32-1.3c2.53,0,5.04,0.36,7.54,1.08s4.67,1.67,6.53,2.86l-3.7,7.68
		C353.09,367.33,351.13,366.43,348.98,365.69z"/>
	<path class="st1" d="M368.66,383.74c0.86,0.8,1.3,1.89,1.3,3.26c0,1.12-0.4,2.3-1.2,3.55l-4.22,6.67h-4.56l2.74-6.72
		c-0.58-0.38-1.02-0.88-1.32-1.49c-0.3-0.61-0.46-1.26-0.46-1.97c0-1.31,0.43-2.39,1.3-3.24c0.86-0.85,1.95-1.27,3.26-1.27
		C366.74,382.54,367.8,382.94,368.66,383.74z"/>
	<path class="st1" d="M59.59,419.97h9.17v2.56h-5.84v1.76h5.3v2.56h-5.3v1.78h6v2.56h-9.33V419.97z"/>
	<path class="st1" d="M76.61,422.69c-0.71-0.25-1.3-0.37-1.76-0.37c-0.29,0-0.51,0.06-0.68,0.17c-0.17,0.11-0.25,0.28-0.25,0.49
		c0,0.3,0.16,0.53,0.48,0.7c0.32,0.17,0.83,0.34,1.52,0.54c0.79,0.22,1.44,0.45,1.95,0.68c0.51,0.23,0.96,0.58,1.34,1.05
		c0.38,0.47,0.57,1.09,0.57,1.86c0,0.78-0.21,1.44-0.62,1.98c-0.41,0.54-0.97,0.94-1.66,1.21c-0.7,0.27-1.48,0.4-2.34,0.4
		c-0.96,0-1.92-0.16-2.89-0.49s-1.8-0.77-2.5-1.34l1.25-2.53c0.57,0.49,1.26,0.9,2.07,1.24c0.82,0.34,1.52,0.5,2.1,0.5
		c0.36,0,0.65-0.07,0.85-0.21s0.3-0.34,0.3-0.59c0-0.31-0.17-0.55-0.5-0.71s-0.84-0.34-1.54-0.52c-0.78-0.2-1.42-0.41-1.94-0.63
		c-0.51-0.22-0.95-0.56-1.33-1.02c-0.37-0.46-0.56-1.06-0.56-1.81c0-0.72,0.19-1.36,0.58-1.9c0.38-0.54,0.93-0.95,1.62-1.24
		s1.51-0.43,2.44-0.43c0.84,0,1.68,0.12,2.51,0.36c0.83,0.24,1.56,0.56,2.18,0.95l-1.23,2.56
		C77.98,423.23,77.32,422.93,76.61,422.69z"/>
	<path class="st1" d="M87.09,422.69c-0.71-0.25-1.3-0.37-1.76-0.37c-0.29,0-0.51,0.06-0.68,0.17c-0.17,0.11-0.25,0.28-0.25,0.49
		c0,0.3,0.16,0.53,0.48,0.7c0.32,0.17,0.83,0.34,1.52,0.54c0.79,0.22,1.44,0.45,1.95,0.68c0.51,0.23,0.96,0.58,1.34,1.05
		c0.38,0.47,0.57,1.09,0.57,1.86c0,0.78-0.21,1.44-0.62,1.98c-0.41,0.54-0.97,0.94-1.66,1.21c-0.7,0.27-1.48,0.4-2.34,0.4
		c-0.96,0-1.92-0.16-2.89-0.49s-1.8-0.77-2.5-1.34l1.25-2.53c0.57,0.49,1.26,0.9,2.07,1.24c0.82,0.34,1.52,0.5,2.1,0.5
		c0.36,0,0.65-0.07,0.85-0.21s0.3-0.34,0.3-0.59c0-0.31-0.17-0.55-0.5-0.71s-0.84-0.34-1.54-0.52c-0.78-0.2-1.42-0.41-1.94-0.63
		c-0.51-0.22-0.95-0.56-1.33-1.02c-0.37-0.46-0.56-1.06-0.56-1.81c0-0.72,0.19-1.36,0.58-1.9c0.38-0.54,0.93-0.95,1.62-1.24
		s1.51-0.43,2.44-0.43c0.84,0,1.68,0.12,2.51,0.36c0.83,0.24,1.56,0.56,2.18,0.95l-1.23,2.56C88.46,423.23,87.8,422.93,87.09,422.69
		z"/>
	<path class="st1" d="M99.67,431.18l-0.66-1.79h-4.53l-0.67,1.79h-3.42l4.78-11.22h3.42l4.62,11.22H99.67z M95.41,426.96h2.72
		l-1.34-3.66L95.41,426.96z"/>
	<path class="st1" d="M115.87,421.01c0.79,0.69,1.19,1.67,1.19,2.94c0,1.33-0.4,2.37-1.19,3.1s-1.92,1.1-3.37,1.1l-1.76,0.02v3.01
		h-3.33v-11.22h5.09C113.95,419.97,115.07,420.31,115.87,421.01z M113.5,425.2c0.27-0.27,0.41-0.65,0.41-1.15
		c0-0.49-0.14-0.87-0.41-1.13c-0.27-0.26-0.66-0.39-1.16-0.39h-1.6v3.07h1.6C112.84,425.6,113.23,425.46,113.5,425.2z"/>
	<path class="st1" d="M125.63,431.18l-0.66-1.79h-4.53l-0.67,1.79h-3.42l4.78-11.22h3.42l4.62,11.22H125.63z M123.2,416.33
		l2.53,0.93l-2.45,1.95l-2.11-0.16L123.2,416.33z M121.38,426.96h2.72l-1.34-3.66L121.38,426.96z"/>
	<path class="st1" d="M137.01,425.37h2.86v4.56c-0.61,0.43-1.36,0.78-2.26,1.06s-1.74,0.42-2.54,0.42c-1.14,0-2.17-0.25-3.09-0.76
		c-0.92-0.51-1.64-1.2-2.16-2.09c-0.52-0.88-0.78-1.88-0.78-2.99c0-1.1,0.27-2.09,0.81-2.98s1.29-1.58,2.24-2.08
		s2.02-0.75,3.21-0.75c0.85,0,1.71,0.15,2.56,0.46c0.85,0.31,1.58,0.73,2.18,1.26l-1.89,2.27c-0.38-0.37-0.83-0.67-1.35-0.9
		c-0.52-0.22-1.02-0.34-1.51-0.34c-0.53,0-1.02,0.13-1.45,0.4c-0.43,0.27-0.77,0.63-1.02,1.1c-0.25,0.46-0.37,0.98-0.37,1.54
		c0,0.58,0.13,1.1,0.38,1.57s0.59,0.84,1.03,1.1c0.44,0.27,0.92,0.4,1.46,0.4c0.48,0,1.04-0.15,1.7-0.46V425.37z"/>
	<path class="st1" d="M141.52,419.97h3.33v11.22h-3.33V419.97z"/>
	<path class="st1" d="M154.34,419.97h3.04v11.22h-2.83l-4.75-6.24v6.24h-3.06v-11.22h2.85l4.75,6.26V419.97z"/>
	<path class="st1" d="M167.47,431.18l-0.66-1.79h-4.53l-0.67,1.79h-3.42l4.78-11.22h3.42l4.62,11.22H167.47z M163.22,426.96h2.72
		l-1.34-3.66L163.22,426.96z"/>
	<path class="st1" d="M182.82,419.97h3.04v11.22h-2.83l-4.75-6.24v6.24h-3.06v-11.22h2.85l4.75,6.26V419.97z"/>
	<path class="st1" d="M195.95,431.18l-0.66-1.79h-4.53l-0.67,1.79h-3.42l4.78-11.22h3.42l4.62,11.22H195.95z M195.8,418.49
		c-0.26,0.44-0.68,0.66-1.26,0.66c-0.26,0-0.49-0.04-0.7-0.11c-0.21-0.08-0.46-0.18-0.74-0.32c-0.32-0.17-0.55-0.26-0.69-0.26
		c-0.28,0-0.43,0.21-0.45,0.64h-1.74c0-0.9,0.13-1.57,0.39-2.01s0.68-0.66,1.26-0.66c0.26,0,0.49,0.04,0.71,0.11
		c0.22,0.07,0.47,0.18,0.76,0.32c0.12,0.06,0.23,0.12,0.35,0.17c0.12,0.05,0.21,0.07,0.29,0.07c0.16,0,0.28-0.05,0.35-0.15
		c0.07-0.1,0.12-0.26,0.13-0.47h1.73C196.19,417.38,196.06,418.06,195.8,418.49z M191.7,426.96h2.72l-1.34-3.66L191.7,426.96z"/>
	<path class="st1" d="M208.6,420.51c0.93,0.5,1.66,1.19,2.19,2.07c0.53,0.88,0.79,1.87,0.79,2.97c0,1.11-0.26,2.11-0.79,3
		c-0.53,0.89-1.26,1.59-2.19,2.1c-0.93,0.51-1.98,0.76-3.13,0.76c-1.16,0-2.21-0.25-3.14-0.76c-0.93-0.51-1.66-1.21-2.18-2.1
		c-0.53-0.89-0.79-1.89-0.79-3c0-1.1,0.26-2.09,0.79-2.97c0.53-0.88,1.26-1.57,2.18-2.07c0.93-0.5,1.97-0.75,3.14-0.75
		C206.63,419.76,207.67,420.01,208.6,420.51z M204.15,422.93c-0.42,0.27-0.76,0.63-1.01,1.1s-0.38,0.98-0.38,1.54
		s0.13,1.08,0.38,1.55c0.25,0.47,0.59,0.84,1.01,1.11c0.42,0.27,0.88,0.41,1.37,0.41c0.48,0,0.93-0.14,1.34-0.41
		c0.41-0.27,0.73-0.64,0.97-1.1c0.23-0.46,0.35-0.98,0.35-1.56c0-0.57-0.12-1.08-0.35-1.54c-0.23-0.46-0.55-0.83-0.96-1.1
		c-0.41-0.27-0.85-0.4-1.34-0.4S204.57,422.66,204.15,422.93z"/>
	<path class="st1" d="M216.21,419.97h8.7v2.56h-5.38v2.24h4.99v2.56h-4.99v3.86h-3.33V419.97z"/>
	<path class="st1" d="M234.71,420.51c0.93,0.5,1.66,1.19,2.19,2.07c0.53,0.88,0.79,1.87,0.79,2.97c0,1.11-0.26,2.11-0.79,3
		c-0.53,0.89-1.26,1.59-2.19,2.1c-0.93,0.51-1.98,0.76-3.13,0.76c-1.16,0-2.21-0.25-3.14-0.76c-0.93-0.51-1.66-1.21-2.18-2.1
		c-0.53-0.89-0.79-1.89-0.79-3c0-1.1,0.26-2.09,0.79-2.97c0.53-0.88,1.26-1.57,2.18-2.07c0.93-0.5,1.97-0.75,3.14-0.75
		C232.74,419.76,233.78,420.01,234.71,420.51z M230.27,422.93c-0.42,0.27-0.76,0.63-1.01,1.1s-0.38,0.98-0.38,1.54
		s0.13,1.08,0.38,1.55c0.25,0.47,0.59,0.84,1.01,1.11c0.42,0.27,0.88,0.41,1.37,0.41c0.48,0,0.93-0.14,1.34-0.41
		c0.41-0.27,0.73-0.64,0.97-1.1c0.23-0.46,0.35-0.98,0.35-1.56c0-0.57-0.12-1.08-0.35-1.54c-0.23-0.46-0.55-0.83-0.96-1.1
		c-0.41-0.27-0.85-0.4-1.34-0.4S230.69,422.66,230.27,422.93z"/>
	<path class="st1" d="M238.94,419.97h3.33v11.22h-3.33V419.97z"/>
	<path class="st1" d="M247.54,419.97h9.17v2.56h-5.84v1.76h5.3v2.56h-5.3v1.78h6v2.56h-9.33V419.97z"/>
	<path class="st1" d="M266.06,419.97h3.04v11.22h-2.83l-4.75-6.24v6.24h-3.06v-11.22h2.85l4.75,6.26V419.97z"/>
	<path class="st1" d="M277.85,422.93c-0.49-0.27-0.96-0.41-1.42-0.41c-0.5,0-0.95,0.13-1.36,0.38c-0.41,0.26-0.73,0.61-0.96,1.06
		c-0.23,0.45-0.35,0.96-0.35,1.53s0.12,1.07,0.35,1.53c0.23,0.45,0.55,0.81,0.96,1.07c0.41,0.26,0.86,0.39,1.36,0.39
		c0.43,0,0.88-0.12,1.37-0.35s0.92-0.55,1.3-0.96l1.92,2.05c-0.61,0.66-1.34,1.19-2.2,1.58s-1.71,0.59-2.55,0.59
		c-1.12,0-2.13-0.25-3.03-0.76s-1.61-1.21-2.12-2.1c-0.51-0.9-0.77-1.9-0.77-3.01c0-1.09,0.26-2.07,0.78-2.95
		c0.52-0.88,1.24-1.57,2.16-2.07c0.92-0.5,1.95-0.75,3.09-0.75c0.84,0,1.69,0.18,2.53,0.54c0.84,0.36,1.55,0.85,2.11,1.46
		l-1.92,2.29C278.75,423.58,278.33,423.21,277.85,422.93z"/>
	<path class="st1" d="M290.46,420.51c0.93,0.5,1.66,1.19,2.19,2.07c0.53,0.88,0.79,1.87,0.79,2.97c0,1.11-0.26,2.11-0.79,3
		c-0.53,0.89-1.26,1.59-2.19,2.1c-0.93,0.51-1.98,0.76-3.13,0.76c-1.16,0-2.21-0.25-3.14-0.76c-0.93-0.51-1.66-1.21-2.18-2.1
		c-0.53-0.89-0.79-1.89-0.79-3c0-1.1,0.26-2.09,0.79-2.97c0.53-0.88,1.26-1.57,2.18-2.07c0.93-0.5,1.97-0.75,3.14-0.75
		C288.48,419.76,289.52,420.01,290.46,420.51z M286.01,422.93c-0.42,0.27-0.76,0.63-1.01,1.1s-0.38,0.98-0.38,1.54
		s0.13,1.08,0.38,1.55c0.25,0.47,0.59,0.84,1.01,1.11c0.42,0.27,0.88,0.41,1.37,0.41c0.48,0,0.93-0.14,1.34-0.41
		c0.41-0.27,0.73-0.64,0.97-1.1c0.23-0.46,0.35-0.98,0.35-1.56c0-0.57-0.12-1.08-0.35-1.54c-0.23-0.46-0.55-0.83-0.96-1.1
		c-0.41-0.27-0.85-0.4-1.34-0.4S286.43,422.66,286.01,422.93z"/>
	<path class="st1" d="M302.29,419.97h3.04v11.22h-2.83l-4.75-6.24v6.24h-3.06v-11.22h2.85l4.75,6.26V419.97z"/>
	<path class="st1" d="M306.37,419.97h9.86v2.66h-3.26v8.56h-3.34v-8.56h-3.25V419.97z"/>
	<path class="st1" d="M323.84,431.18l-1.49-3.02h-1.76v3.02h-3.33v-11.22h5.23c1.5,0,2.67,0.35,3.5,1.04
		c0.83,0.69,1.24,1.67,1.24,2.94c0,0.82-0.16,1.53-0.49,2.14c-0.33,0.6-0.79,1.08-1.4,1.43l2.27,3.66H323.84z M320.59,425.6h1.9
		c0.5,0,0.89-0.13,1.16-0.4c0.27-0.27,0.41-0.65,0.41-1.15c0-0.49-0.14-0.87-0.41-1.13c-0.27-0.26-0.66-0.39-1.16-0.39h-1.9V425.6z"
		/>
	<path class="st1" d="M337.07,431.18l-0.66-1.79h-4.53l-0.67,1.79h-3.42l4.78-11.22H336l4.62,11.22H337.07z M332.82,426.96h2.72
		l-1.34-3.66L332.82,426.96z"/>
	<path class="st1" d="M349.51,420.66c0.91,0.46,1.62,1.12,2.12,1.97c0.5,0.85,0.75,1.83,0.75,2.94s-0.26,2.09-0.77,2.94
		s-1.23,1.51-2.16,1.98c-0.93,0.46-2,0.7-3.21,0.7h-4.8v-11.22h4.91C347.55,419.97,348.6,420.2,349.51,420.66z M348.29,427.76
		c0.47-0.54,0.71-1.26,0.71-2.16c0-0.9-0.25-1.62-0.75-2.18c-0.5-0.55-1.15-0.83-1.95-0.83h-1.52v5.98h1.68
		C347.21,428.57,347.82,428.3,348.29,427.76z"/>
	<path class="st1" d="M361.52,431.18l-0.66-1.79h-4.53l-0.67,1.79h-3.42l4.78-11.22h3.42l4.62,11.22H361.52z M357.26,426.96h2.72
		l-1.34-3.66L357.26,426.96z"/>
	<path class="st1" d="M368.06,428.7c0.29,0.27,0.43,0.63,0.43,1.09c0,0.37-0.13,0.77-0.4,1.18l-1.41,2.22h-1.52l0.91-2.24
		c-0.19-0.13-0.34-0.29-0.44-0.5c-0.1-0.2-0.15-0.42-0.15-0.66c0-0.44,0.14-0.8,0.43-1.08c0.29-0.28,0.65-0.42,1.09-0.42
		C367.42,428.3,367.78,428.44,368.06,428.7z"/>
	<path class="st1" d="M381.93,420.51c0.93,0.5,1.66,1.19,2.19,2.07c0.53,0.88,0.79,1.87,0.79,2.97c0,1.11-0.26,2.11-0.79,3
		c-0.53,0.89-1.26,1.59-2.19,2.1s-1.98,0.76-3.13,0.76c-1.16,0-2.21-0.25-3.14-0.76s-1.66-1.21-2.18-2.1
		c-0.53-0.89-0.79-1.89-0.79-3c0-1.1,0.26-2.09,0.79-2.97c0.53-0.88,1.26-1.57,2.18-2.07s1.97-0.75,3.14-0.75
		C379.95,419.76,380.99,420.01,381.93,420.51z M377.48,422.93c-0.42,0.27-0.76,0.63-1.01,1.1s-0.38,0.98-0.38,1.54
		s0.12,1.08,0.38,1.55c0.25,0.47,0.59,0.84,1.01,1.11c0.42,0.27,0.88,0.41,1.37,0.41c0.48,0,0.93-0.14,1.34-0.41
		c0.41-0.27,0.73-0.64,0.97-1.1c0.23-0.46,0.35-0.98,0.35-1.56c0-0.57-0.12-1.08-0.35-1.54c-0.24-0.46-0.55-0.83-0.96-1.1
		c-0.41-0.27-0.85-0.4-1.34-0.4S377.9,422.66,377.48,422.93z"/>
	<path class="st1" d="M389.86,428.06c0.36,0.38,0.82,0.58,1.36,0.58c0.53,0,0.97-0.19,1.31-0.57c0.34-0.38,0.51-0.89,0.51-1.53
		v-6.58h3.33v6.58c0,0.98-0.21,1.84-0.63,2.57c-0.42,0.73-1.02,1.3-1.8,1.7c-0.78,0.4-1.69,0.6-2.72,0.6c-1.04,0-1.96-0.2-2.75-0.6
		s-1.4-0.96-1.83-1.7c-0.43-0.73-0.65-1.59-0.65-2.57v-6.58h3.33v6.58C389.31,427.17,389.49,427.68,389.86,428.06z"/>
	<path class="st1" d="M401.46,419.97h9.17v2.56h-5.84v1.76h5.3v2.56h-5.3v1.78h6v2.56h-9.33V419.97z"/>
	<path class="st1" d="M412.38,419.97h3.33v8.43h4.71v2.78h-8.03V419.97z"/>
	<path class="st1" d="M429.79,431.18l-0.66-1.79h-4.53l-0.67,1.79h-3.42l4.78-11.22h3.42l4.62,11.22H429.79z M425.54,426.96h2.72
		l-1.34-3.66L425.54,426.96z"/>
	<path class="st1" d="M445.13,419.97h3.04v11.22h-2.83l-4.75-6.24v6.24h-3.06v-11.22h2.85l4.75,6.26V419.97z"/>
	<path class="st1" d="M458.27,431.18l-0.66-1.79h-4.53l-0.67,1.79h-3.42l4.78-11.22h3.42l4.62,11.22H458.27z M458.12,418.49
		c-0.26,0.44-0.68,0.66-1.26,0.66c-0.26,0-0.49-0.04-0.71-0.11c-0.21-0.08-0.46-0.18-0.74-0.32c-0.32-0.17-0.55-0.26-0.69-0.26
		c-0.28,0-0.43,0.21-0.45,0.64h-1.74c0-0.9,0.13-1.57,0.39-2.01s0.68-0.66,1.26-0.66c0.26,0,0.49,0.04,0.71,0.11
		c0.22,0.07,0.47,0.18,0.76,0.32c0.12,0.06,0.23,0.12,0.35,0.17c0.12,0.05,0.21,0.07,0.29,0.07c0.16,0,0.28-0.05,0.35-0.15
		c0.07-0.1,0.12-0.26,0.13-0.47h1.73C458.51,417.38,458.38,418.06,458.12,418.49z M454.01,426.96h2.72l-1.34-3.66L454.01,426.96z"/>
	<path class="st1" d="M470.92,420.51c0.93,0.5,1.66,1.19,2.19,2.07c0.53,0.88,0.79,1.87,0.79,2.97c0,1.11-0.26,2.11-0.79,3
		c-0.53,0.89-1.26,1.59-2.19,2.1c-0.93,0.51-1.98,0.76-3.13,0.76c-1.16,0-2.21-0.25-3.14-0.76c-0.93-0.51-1.66-1.21-2.18-2.1
		c-0.53-0.89-0.79-1.89-0.79-3c0-1.1,0.26-2.09,0.79-2.97c0.53-0.88,1.26-1.57,2.18-2.07c0.93-0.5,1.97-0.75,3.14-0.75
		C468.94,419.76,469.99,420.01,470.92,420.51z M466.47,422.93c-0.42,0.27-0.76,0.63-1.01,1.1s-0.38,0.98-0.38,1.54
		s0.13,1.08,0.38,1.55c0.25,0.47,0.59,0.84,1.01,1.11c0.42,0.27,0.88,0.41,1.37,0.41c0.48,0,0.92-0.14,1.34-0.41
		c0.41-0.27,0.73-0.64,0.97-1.1s0.35-0.98,0.35-1.56c0-0.57-0.12-1.08-0.35-1.54s-0.55-0.83-0.96-1.1c-0.41-0.27-0.85-0.4-1.34-0.4
		S466.89,422.66,466.47,422.93z"/>
	<path class="st1" d="M478.53,419.97h9.17v2.56h-5.84v1.76h5.3v2.56h-5.3v1.78h6v2.56h-9.33V419.97z"/>
	<path class="st1" d="M488.75,419.97h3.87l1.86,2.93l1.87-2.93h3.92l-3.66,5.36l4,5.86h-4l-2.13-3.2l-2.1,3.2h-3.89l3.97-5.71
		L488.75,419.97z"/>
	<path class="st1" d="M501.55,419.97h3.33v11.22h-3.33V419.97z"/>
	<path class="st1" d="M512.86,422.69c-0.71-0.25-1.3-0.37-1.76-0.37c-0.29,0-0.52,0.06-0.68,0.17c-0.16,0.11-0.25,0.28-0.25,0.49
		c0,0.3,0.16,0.53,0.48,0.7c0.32,0.17,0.83,0.34,1.52,0.54c0.79,0.22,1.44,0.45,1.95,0.68s0.96,0.58,1.34,1.05
		c0.38,0.47,0.57,1.09,0.57,1.86c0,0.78-0.21,1.44-0.62,1.98c-0.41,0.54-0.96,0.94-1.66,1.21c-0.7,0.27-1.48,0.4-2.34,0.4
		c-0.96,0-1.92-0.16-2.89-0.49c-0.97-0.33-1.8-0.77-2.5-1.34l1.25-2.53c0.56,0.49,1.26,0.9,2.07,1.24c0.82,0.34,1.52,0.5,2.11,0.5
		c0.36,0,0.64-0.07,0.85-0.21c0.2-0.14,0.3-0.34,0.3-0.59c0-0.31-0.16-0.55-0.49-0.71c-0.33-0.17-0.84-0.34-1.54-0.52
		c-0.78-0.2-1.42-0.41-1.94-0.63s-0.96-0.56-1.33-1.02c-0.37-0.46-0.56-1.06-0.56-1.81c0-0.72,0.19-1.36,0.58-1.9
		c0.38-0.54,0.93-0.95,1.62-1.24c0.7-0.29,1.51-0.43,2.44-0.43c0.84,0,1.68,0.12,2.51,0.36c0.83,0.24,1.56,0.56,2.18,0.95
		l-1.23,2.56C514.23,423.23,513.58,422.93,512.86,422.69z"/>
	<path class="st1" d="M516.4,419.97h9.86v2.66h-3.26v8.56h-3.34v-8.56h-3.25V419.97z"/>
	<path class="st1" d="M527.29,419.97h9.17v2.56h-5.84v1.76h5.29v2.56h-5.29v1.78h6v2.56h-9.33V419.97z"/>
	<path class="st1" d="M540.41,428.72c0.28,0.28,0.42,0.63,0.42,1.07c0,0.45-0.14,0.81-0.42,1.1c-0.28,0.28-0.65,0.42-1.1,0.42
		c-0.44,0-0.8-0.14-1.08-0.42c-0.28-0.28-0.42-0.65-0.42-1.1c0-0.44,0.14-0.79,0.42-1.07c0.28-0.28,0.64-0.42,1.08-0.42
		C539.76,428.3,540.12,428.44,540.41,428.72z"/>
	<path class="st1" d="M90,458.37h3.04v11.22H90.2l-4.75-6.24v6.24H82.4v-11.22h2.85l4.75,6.26V458.37z"/>
	<path class="st1" d="M101.92,461.59c0.69,0.56,1.03,1.34,1.03,2.34v5.65h-3.17v-0.96c-0.27,0.35-0.62,0.62-1.05,0.82
		c-0.43,0.19-0.93,0.29-1.5,0.29c-0.92,0-1.64-0.25-2.16-0.74c-0.52-0.5-0.78-1.16-0.78-1.99c0-0.84,0.29-1.49,0.86-1.94
		c0.57-0.45,1.41-0.69,2.5-0.7h2.13v-0.03c0-0.36-0.13-0.65-0.38-0.85c-0.26-0.2-0.63-0.3-1.12-0.3c-0.35,0-0.76,0.05-1.22,0.16
		s-0.93,0.26-1.4,0.46l-0.8-2.14c1.47-0.6,2.87-0.9,4.19-0.9C100.28,460.75,101.23,461.03,101.92,461.59z M101.54,459.39
		c-0.26,0.44-0.68,0.66-1.26,0.66c-0.26,0-0.49-0.04-0.7-0.11c-0.21-0.07-0.46-0.18-0.74-0.32c-0.32-0.17-0.55-0.26-0.69-0.26
		c-0.28,0-0.43,0.21-0.45,0.64h-1.74c0-0.9,0.13-1.57,0.39-2.01c0.26-0.44,0.68-0.66,1.26-0.66c0.26,0,0.49,0.04,0.71,0.11
		c0.22,0.07,0.47,0.18,0.76,0.32c0.12,0.06,0.23,0.12,0.35,0.17c0.12,0.05,0.21,0.07,0.29,0.07c0.16,0,0.28-0.05,0.35-0.15
		c0.07-0.1,0.12-0.26,0.13-0.47h1.73C101.93,458.28,101.8,458.95,101.54,459.39z M99.21,467.37c0.27-0.16,0.46-0.38,0.58-0.66v-0.78
		h-1.47c-0.65,0-0.98,0.27-0.98,0.82c0,0.28,0.09,0.49,0.26,0.64c0.17,0.15,0.41,0.22,0.72,0.22
		C98.65,467.61,98.94,467.53,99.21,467.37z"/>
	<path class="st1" d="M111.39,461.32c0.73,0.37,1.29,0.89,1.69,1.56c0.4,0.67,0.6,1.46,0.6,2.35c0,0.88-0.2,1.67-0.6,2.34
		c-0.4,0.68-0.96,1.2-1.69,1.57c-0.73,0.37-1.57,0.55-2.54,0.55s-1.82-0.18-2.55-0.55c-0.73-0.37-1.3-0.89-1.7-1.57
		c-0.4-0.68-0.6-1.46-0.6-2.34c0-0.9,0.2-1.68,0.6-2.35c0.4-0.67,0.97-1.19,1.7-1.56c0.73-0.37,1.58-0.55,2.55-0.55
		S110.66,460.95,111.39,461.32z M107.69,463.86c-0.29,0.36-0.43,0.82-0.43,1.4c0,0.59,0.14,1.06,0.43,1.41
		c0.29,0.35,0.67,0.53,1.15,0.53c0.47,0,0.85-0.18,1.14-0.53c0.29-0.35,0.43-0.82,0.43-1.41c0-0.58-0.14-1.04-0.43-1.4
		s-0.67-0.54-1.14-0.54C108.36,463.33,107.98,463.5,107.69,463.86z"/>
	<path class="st1" d="M122.37,460.3c-0.17,0.15-0.25,0.35-0.25,0.61v0.42h1.81v2.06h-1.81v6.19h-3.2v-6.19h-1.18v-2.06h1.18v-0.8
		c0-0.91,0.31-1.63,0.94-2.16c0.63-0.53,1.46-0.8,2.48-0.8c0.65,0,1.31,0.11,1.97,0.32l-0.35,2.4c-0.42-0.14-0.73-0.21-0.93-0.21
		C122.76,460.08,122.54,460.15,122.37,460.3z M127.71,457.2c0.31,0.31,0.46,0.71,0.46,1.2c0,0.49-0.15,0.89-0.46,1.2
		c-0.31,0.31-0.71,0.46-1.2,0.46s-0.89-0.16-1.21-0.46c-0.31-0.31-0.47-0.71-0.47-1.2c0-0.49,0.16-0.89,0.47-1.2
		s0.72-0.46,1.21-0.46S127.4,456.89,127.71,457.2z M124.91,460.88h3.23v8.7h-3.23V460.88z"/>
	<path class="st1" d="M139.07,460.88v11.81h-3.23v-4.1c-0.29,0.35-0.63,0.62-1.04,0.82c-0.41,0.19-0.85,0.29-1.34,0.29
		c-0.8,0-1.5-0.19-2.11-0.56c-0.61-0.37-1.08-0.9-1.42-1.58c-0.34-0.68-0.5-1.47-0.5-2.38c0-0.88,0.16-1.66,0.49-2.33
		c0.33-0.67,0.79-1.18,1.38-1.54c0.6-0.36,1.29-0.54,2.08-0.54c0.51,0,0.98,0.1,1.39,0.29c0.42,0.19,0.77,0.47,1.07,0.83v-1.01
		H139.07z M135.4,466.68c0.29-0.36,0.43-0.83,0.43-1.42c0-0.58-0.14-1.04-0.43-1.4s-0.67-0.54-1.14-0.54
		c-0.48,0-0.86,0.18-1.15,0.54s-0.43,0.82-0.43,1.4c0,0.59,0.14,1.06,0.43,1.42s0.67,0.54,1.15,0.54
		C134.74,467.21,135.11,467.04,135.4,466.68z"/>
	<path class="st1" d="M149.83,460.88v8.7h-3.23v-1.3c-0.3,0.47-0.67,0.83-1.13,1.07c-0.45,0.25-0.97,0.37-1.54,0.37
		c-0.61,0-1.14-0.14-1.61-0.41c-0.46-0.27-0.82-0.66-1.08-1.16c-0.26-0.5-0.38-1.09-0.38-1.76v-5.52h3.23v4.61
		c0,0.43,0.11,0.77,0.32,1.02c0.21,0.25,0.5,0.38,0.85,0.38c0.42-0.01,0.74-0.17,0.98-0.48c0.24-0.31,0.36-0.71,0.36-1.22v-4.3
		H149.83z"/>
	<path class="st1" d="M159.05,462.04c0.8,0.85,1.2,2.01,1.2,3.48c0,0.22-0.01,0.39-0.02,0.5h-5.86c0.13,0.42,0.34,0.74,0.63,0.96
		c0.29,0.22,0.65,0.34,1.06,0.34c0.67,0,1.31-0.28,1.92-0.83l1.68,1.65c-0.46,0.51-1.02,0.9-1.67,1.17c-0.66,0.27-1.39,0.4-2.2,0.4
		c-0.96,0-1.79-0.18-2.5-0.55c-0.7-0.37-1.25-0.88-1.62-1.55c-0.38-0.67-0.57-1.44-0.57-2.33c0-0.9,0.19-1.68,0.58-2.36
		c0.38-0.68,0.92-1.2,1.62-1.58s1.49-0.56,2.4-0.56C157.14,460.77,158.25,461.19,159.05,462.04z M156.7,463.37
		c-0.25-0.28-0.57-0.42-0.96-0.42c-0.37,0-0.68,0.13-0.93,0.4c-0.25,0.27-0.41,0.62-0.5,1.07h2.74
		C157.06,464,156.94,463.65,156.7,463.37z"/>
	<path class="st1" d="M172.71,461.33c0.61,0.37,1.08,0.9,1.42,1.58c0.34,0.68,0.5,1.47,0.5,2.37c0,0.88-0.16,1.66-0.49,2.33
		c-0.33,0.67-0.79,1.18-1.38,1.54c-0.6,0.36-1.29,0.54-2.08,0.54c-0.51,0-0.98-0.1-1.39-0.29c-0.42-0.19-0.77-0.47-1.07-0.83v4.11
		h-3.23v-11.81h3.23v1.01c0.29-0.36,0.63-0.64,1.04-0.83c0.41-0.19,0.85-0.29,1.34-0.29C171.4,460.77,172.11,460.95,172.71,461.33z
		 M170.94,466.6c0.29-0.36,0.43-0.82,0.43-1.4s-0.14-1.04-0.43-1.4c-0.29-0.36-0.67-0.54-1.15-0.54c-0.47,0-0.85,0.18-1.14,0.54
		c-0.29,0.36-0.43,0.82-0.43,1.4s0.14,1.04,0.43,1.4c0.29,0.36,0.67,0.54,1.14,0.54C170.27,467.13,170.65,466.96,170.94,466.6z"/>
	<path class="st1" d="M183.18,462.04c0.8,0.85,1.2,2.01,1.2,3.48c0,0.22-0.01,0.39-0.02,0.5h-5.86c0.13,0.42,0.34,0.74,0.63,0.96
		c0.29,0.22,0.65,0.34,1.06,0.34c0.67,0,1.31-0.28,1.92-0.83l1.68,1.65c-0.46,0.51-1.02,0.9-1.67,1.17c-0.66,0.27-1.39,0.4-2.2,0.4
		c-0.96,0-1.79-0.18-2.5-0.55c-0.7-0.37-1.25-0.88-1.62-1.55c-0.38-0.67-0.57-1.44-0.57-2.33c0-0.9,0.19-1.68,0.58-2.36
		c0.38-0.68,0.92-1.2,1.62-1.58s1.49-0.56,2.4-0.56C181.26,460.77,182.38,461.19,183.18,462.04z M180.83,463.37
		c-0.25-0.28-0.57-0.42-0.96-0.42c-0.37,0-0.68,0.13-0.93,0.4c-0.25,0.27-0.41,0.62-0.5,1.07h2.74
		C181.19,464,181.07,463.65,180.83,463.37z"/>
	<path class="st1" d="M190.05,461.14c0.46-0.26,0.99-0.39,1.58-0.39v2.91c-0.13-0.02-0.31-0.03-0.56-0.03
		c-0.67,0-1.2,0.16-1.59,0.48c-0.39,0.32-0.58,0.76-0.58,1.31v4.16h-3.23v-8.7h3.23v1.38C189.2,461.77,189.59,461.4,190.05,461.14z"
		/>
	<path class="st1" d="M201.74,457.71v11.87h-3.23v-0.99c-0.29,0.35-0.63,0.62-1.04,0.82c-0.41,0.19-0.85,0.29-1.34,0.29
		c-0.8,0-1.5-0.19-2.11-0.56c-0.61-0.37-1.08-0.9-1.42-1.58c-0.34-0.68-0.5-1.47-0.5-2.38c0-0.88,0.16-1.66,0.49-2.33
		c0.33-0.67,0.79-1.18,1.38-1.54c0.6-0.36,1.29-0.54,2.08-0.54c0.51,0,0.98,0.1,1.39,0.29c0.42,0.19,0.77,0.47,1.07,0.83v-4.18
		H201.74z M198.07,466.68c0.29-0.36,0.43-0.83,0.43-1.42c0-0.58-0.14-1.04-0.43-1.4s-0.67-0.54-1.14-0.54
		c-0.48,0-0.86,0.18-1.15,0.54s-0.43,0.82-0.43,1.4c0,0.59,0.14,1.06,0.43,1.42s0.67,0.54,1.15,0.54
		C197.41,467.21,197.79,467.04,198.07,466.68z"/>
	<path class="st1" d="M206.57,457.2c0.31,0.31,0.46,0.71,0.46,1.2c0,0.49-0.15,0.89-0.46,1.2c-0.31,0.31-0.71,0.46-1.2,0.46
		c-0.49,0-0.89-0.16-1.21-0.46c-0.31-0.31-0.47-0.71-0.47-1.2c0-0.49,0.16-0.89,0.47-1.2c0.31-0.31,0.72-0.46,1.21-0.46
		C205.86,456.73,206.26,456.89,206.57,457.2z M203.77,460.88H207v8.7h-3.23V460.88z"/>
	<path class="st1" d="M217.93,457.71v11.87h-3.23v-0.99c-0.29,0.35-0.63,0.62-1.04,0.82c-0.41,0.19-0.85,0.29-1.34,0.29
		c-0.8,0-1.5-0.19-2.11-0.56c-0.61-0.37-1.08-0.9-1.42-1.58c-0.34-0.68-0.5-1.47-0.5-2.38c0-0.88,0.16-1.66,0.49-2.33
		c0.33-0.67,0.79-1.18,1.38-1.54c0.6-0.36,1.29-0.54,2.08-0.54c0.51,0,0.98,0.1,1.39,0.29c0.42,0.19,0.77,0.47,1.07,0.83v-4.18
		H217.93z M214.27,466.68c0.29-0.36,0.43-0.83,0.43-1.42c0-0.58-0.14-1.04-0.43-1.4s-0.67-0.54-1.14-0.54
		c-0.48,0-0.86,0.18-1.15,0.54s-0.43,0.82-0.43,1.4c0,0.59,0.14,1.06,0.43,1.42s0.67,0.54,1.15,0.54
		C213.6,467.21,213.98,467.04,214.27,466.68z"/>
	<path class="st1" d="M226.68,461.32c0.73,0.37,1.29,0.89,1.69,1.56c0.4,0.67,0.6,1.46,0.6,2.35c0,0.88-0.2,1.67-0.6,2.34
		c-0.4,0.68-0.96,1.2-1.69,1.57c-0.73,0.37-1.57,0.55-2.54,0.55s-1.82-0.18-2.55-0.55c-0.73-0.37-1.3-0.89-1.7-1.57
		c-0.4-0.68-0.6-1.46-0.6-2.34c0-0.9,0.2-1.68,0.6-2.35c0.4-0.67,0.97-1.19,1.7-1.56c0.73-0.37,1.58-0.55,2.55-0.55
		S225.96,460.95,226.68,461.32z M222.98,463.86c-0.29,0.36-0.43,0.82-0.43,1.4c0,0.59,0.14,1.06,0.43,1.41
		c0.29,0.35,0.67,0.53,1.15,0.53c0.47,0,0.85-0.18,1.14-0.53c0.29-0.35,0.43-0.82,0.43-1.41c0-0.58-0.14-1.04-0.43-1.4
		s-0.67-0.54-1.14-0.54C223.66,463.33,223.27,463.5,222.98,463.86z"/>
	<path class="st1" d="M241.43,461.33c0.61,0.37,1.08,0.9,1.42,1.58c0.34,0.68,0.5,1.47,0.5,2.37c0,0.88-0.16,1.66-0.49,2.33
		c-0.33,0.67-0.79,1.18-1.38,1.54c-0.6,0.36-1.29,0.54-2.08,0.54c-0.51,0-0.98-0.1-1.39-0.29c-0.42-0.19-0.77-0.47-1.07-0.83v4.11
		h-3.23v-11.81h3.23v1.01c0.29-0.36,0.63-0.64,1.04-0.83c0.41-0.19,0.85-0.29,1.34-0.29C240.12,460.77,240.82,460.95,241.43,461.33z
		 M239.66,466.6c0.29-0.36,0.43-0.82,0.43-1.4s-0.14-1.04-0.43-1.4c-0.29-0.36-0.67-0.54-1.15-0.54c-0.47,0-0.85,0.18-1.14,0.54
		c-0.29,0.36-0.43,0.82-0.43,1.4s0.14,1.04,0.43,1.4c0.29,0.36,0.67,0.54,1.14,0.54C238.98,467.13,239.37,466.96,239.66,466.6z"/>
	<path class="st1" d="M251.35,461.32c0.73,0.37,1.29,0.89,1.69,1.56c0.4,0.67,0.6,1.46,0.6,2.35c0,0.88-0.2,1.67-0.6,2.34
		c-0.4,0.68-0.96,1.2-1.69,1.57c-0.73,0.37-1.57,0.55-2.54,0.55s-1.82-0.18-2.55-0.55c-0.73-0.37-1.3-0.89-1.7-1.57
		c-0.4-0.68-0.6-1.46-0.6-2.34c0-0.9,0.2-1.68,0.6-2.35c0.4-0.67,0.97-1.19,1.7-1.56c0.73-0.37,1.58-0.55,2.55-0.55
		S250.63,460.95,251.35,461.32z M247.66,463.86c-0.29,0.36-0.43,0.82-0.43,1.4c0,0.59,0.14,1.06,0.43,1.41
		c0.29,0.35,0.67,0.53,1.15,0.53c0.47,0,0.85-0.18,1.14-0.53c0.29-0.35,0.43-0.82,0.43-1.41c0-0.58-0.14-1.04-0.43-1.4
		s-0.67-0.54-1.14-0.54C248.33,463.33,247.94,463.5,247.66,463.86z"/>
	<path class="st1" d="M259.31,461.14c0.46-0.26,0.99-0.39,1.58-0.39v2.91c-0.13-0.02-0.31-0.03-0.56-0.03
		c-0.67,0-1.2,0.16-1.59,0.48c-0.39,0.32-0.58,0.76-0.58,1.31v4.16h-3.23v-8.7h3.23v1.38C258.46,461.77,258.85,461.4,259.31,461.14z
		"/>
	<path class="st1" d="M272.37,461.59c0.69,0.56,1.03,1.34,1.03,2.34v5.65h-3.17v-0.96c-0.27,0.35-0.62,0.62-1.05,0.82
		c-0.43,0.19-0.93,0.29-1.5,0.29c-0.92,0-1.64-0.25-2.16-0.74c-0.52-0.5-0.78-1.16-0.78-1.99c0-0.84,0.29-1.49,0.86-1.94
		c0.57-0.45,1.41-0.69,2.5-0.7h2.13v-0.03c0-0.36-0.13-0.65-0.38-0.85c-0.26-0.2-0.63-0.3-1.12-0.3c-0.35,0-0.76,0.05-1.22,0.16
		s-0.93,0.26-1.4,0.46l-0.8-2.14c1.47-0.6,2.87-0.9,4.19-0.9C270.72,460.75,271.68,461.03,272.37,461.59z M269.66,467.37
		c0.27-0.16,0.46-0.38,0.58-0.66v-0.78h-1.47c-0.65,0-0.98,0.27-0.98,0.82c0,0.28,0.09,0.49,0.26,0.64
		c0.17,0.15,0.41,0.22,0.72,0.22C269.09,467.61,269.39,467.53,269.66,467.37z"/>
	<path class="st1" d="M284.09,460.88v11.81h-3.23v-4.1c-0.29,0.35-0.63,0.62-1.04,0.82c-0.41,0.19-0.85,0.29-1.34,0.29
		c-0.8,0-1.5-0.19-2.11-0.56c-0.61-0.37-1.08-0.9-1.42-1.58c-0.34-0.68-0.5-1.47-0.5-2.38c0-0.88,0.16-1.66,0.49-2.33
		c0.33-0.67,0.79-1.18,1.38-1.54c0.6-0.36,1.29-0.54,2.08-0.54c0.51,0,0.98,0.1,1.39,0.29c0.42,0.19,0.77,0.47,1.07,0.83v-1.01
		H284.09z M280.42,466.68c0.29-0.36,0.43-0.83,0.43-1.42c0-0.58-0.14-1.04-0.43-1.4s-0.67-0.54-1.14-0.54
		c-0.48,0-0.86,0.18-1.15,0.54s-0.43,0.82-0.43,1.4c0,0.59,0.14,1.06,0.43,1.42s0.67,0.54,1.15,0.54
		C279.76,467.21,280.14,467.04,280.42,466.68z"/>
	<path class="st1" d="M294.86,460.88v8.7h-3.23v-1.3c-0.3,0.47-0.67,0.83-1.13,1.07c-0.45,0.25-0.97,0.37-1.54,0.37
		c-0.61,0-1.14-0.14-1.61-0.41c-0.46-0.27-0.82-0.66-1.08-1.16c-0.26-0.5-0.38-1.09-0.38-1.76v-5.52h3.23v4.61
		c0,0.43,0.11,0.77,0.32,1.02c0.21,0.25,0.5,0.38,0.85,0.38c0.42-0.01,0.74-0.17,0.98-0.48c0.24-0.31,0.36-0.71,0.36-1.22v-4.3
		H294.86z"/>
	<path class="st1" d="M299.61,457.2c0.31,0.31,0.46,0.71,0.46,1.2c0,0.49-0.15,0.89-0.46,1.2c-0.31,0.31-0.71,0.46-1.2,0.46
		c-0.49,0-0.89-0.16-1.21-0.46c-0.31-0.31-0.47-0.71-0.47-1.2c0-0.49,0.16-0.89,0.47-1.2c0.31-0.31,0.72-0.46,1.21-0.46
		C298.9,456.73,299.3,456.89,299.61,457.2z M296.81,460.88h3.23v8.7h-3.23V460.88z"/>
	<path class="st1" d="M312.63,462.04c0.8,0.85,1.2,2.01,1.2,3.48c0,0.22-0.01,0.39-0.02,0.5h-5.86c0.13,0.42,0.34,0.74,0.63,0.96
		c0.29,0.22,0.65,0.34,1.06,0.34c0.67,0,1.31-0.28,1.92-0.83l1.68,1.65c-0.46,0.51-1.02,0.9-1.67,1.17s-1.39,0.4-2.2,0.4
		c-0.96,0-1.79-0.18-2.5-0.55c-0.71-0.37-1.25-0.88-1.62-1.55c-0.38-0.67-0.57-1.44-0.57-2.33c0-0.9,0.19-1.68,0.58-2.36
		c0.38-0.68,0.92-1.2,1.62-1.58s1.49-0.56,2.4-0.56C310.72,460.77,311.83,461.19,312.63,462.04z M310.28,463.37
		c-0.25-0.28-0.57-0.42-0.96-0.42c-0.37,0-0.68,0.13-0.93,0.4c-0.25,0.27-0.41,0.62-0.5,1.07h2.74
		C310.64,464,310.53,463.65,310.28,463.37z"/>
	<path class="st1" d="M317.38,460.88h3.33l1.6,5.76l1.62-5.76h3.23l-3.25,8.7h-3.3L317.38,460.88z"/>
	<path class="st1" d="M334.46,461.32c0.73,0.37,1.29,0.89,1.69,1.56c0.4,0.67,0.6,1.46,0.6,2.35c0,0.88-0.2,1.67-0.6,2.34
		c-0.4,0.68-0.96,1.2-1.69,1.57c-0.72,0.37-1.57,0.55-2.54,0.55s-1.82-0.18-2.55-0.55c-0.73-0.37-1.29-0.89-1.7-1.57
		s-0.6-1.46-0.6-2.34c0-0.9,0.2-1.68,0.6-2.35s0.96-1.19,1.7-1.56c0.73-0.37,1.58-0.55,2.55-0.55S333.73,460.95,334.46,461.32z
		 M330.76,463.86c-0.29,0.36-0.43,0.82-0.43,1.4c0,0.59,0.14,1.06,0.43,1.41c0.29,0.35,0.67,0.53,1.15,0.53
		c0.47,0,0.85-0.18,1.14-0.53c0.29-0.35,0.43-0.82,0.43-1.41c0-0.58-0.14-1.04-0.43-1.4s-0.67-0.54-1.14-0.54
		C331.43,463.33,331.05,463.5,330.76,463.86z"/>
	<path class="st1" d="M338.1,457.71h3.23v11.87h-3.23V457.71z"/>
	<path class="st1" d="M349.34,469.17c-0.31,0.17-0.69,0.31-1.13,0.41c-0.44,0.1-0.89,0.15-1.34,0.15c-0.93,0-1.67-0.26-2.22-0.77
		c-0.56-0.51-0.83-1.21-0.83-2.1v-3.47h-1.2v-2.06h1.2v-2.42h3.21v2.42h2.14v2.06h-2.14v2.98c0,0.28,0.06,0.49,0.19,0.62
		s0.31,0.21,0.54,0.21c0.2,0,0.53-0.09,0.99-0.26L349.34,469.17z"/>
	<path class="st1" d="M357.82,462.04c0.8,0.85,1.2,2.01,1.2,3.48c0,0.22-0.01,0.39-0.02,0.5h-5.86c0.13,0.42,0.34,0.74,0.63,0.96
		c0.29,0.22,0.65,0.34,1.06,0.34c0.67,0,1.31-0.28,1.92-0.83l1.68,1.65c-0.46,0.51-1.02,0.9-1.67,1.17s-1.39,0.4-2.2,0.4
		c-0.96,0-1.79-0.18-2.5-0.55c-0.71-0.37-1.25-0.88-1.62-1.55c-0.38-0.67-0.57-1.44-0.57-2.33c0-0.9,0.19-1.68,0.58-2.36
		c0.38-0.68,0.92-1.2,1.62-1.58s1.49-0.56,2.4-0.56C355.9,460.77,357.02,461.19,357.82,462.04z M355.46,463.37
		c-0.25-0.28-0.57-0.42-0.96-0.42c-0.37,0-0.68,0.13-0.93,0.4c-0.25,0.27-0.41,0.62-0.5,1.07h2.74
		C355.83,464,355.71,463.65,355.46,463.37z"/>
	<path class="st1" d="M371.48,461.33c0.61,0.37,1.08,0.9,1.42,1.58c0.34,0.68,0.5,1.47,0.5,2.37c0,0.88-0.16,1.66-0.49,2.33
		c-0.33,0.67-0.79,1.18-1.38,1.54c-0.6,0.36-1.29,0.54-2.08,0.54c-0.51,0-0.98-0.1-1.39-0.29c-0.42-0.19-0.77-0.47-1.07-0.83v4.11
		h-3.23v-11.81h3.23v1.01c0.29-0.36,0.63-0.64,1.04-0.83c0.41-0.19,0.85-0.29,1.34-0.29C370.17,460.77,370.87,460.95,371.48,461.33z
		 M369.7,466.6c0.29-0.36,0.43-0.82,0.43-1.4s-0.14-1.04-0.43-1.4c-0.29-0.36-0.67-0.54-1.15-0.54c-0.47,0-0.85,0.18-1.13,0.54
		c-0.29,0.36-0.43,0.82-0.43,1.4s0.14,1.04,0.43,1.4c0.29,0.36,0.67,0.54,1.13,0.54C369.03,467.13,369.42,466.96,369.7,466.6z"/>
	<path class="st1" d="M381.65,461.59c0.69,0.56,1.03,1.34,1.03,2.34v5.65h-3.17v-0.96c-0.27,0.35-0.62,0.62-1.05,0.82
		c-0.43,0.19-0.93,0.29-1.5,0.29c-0.92,0-1.64-0.25-2.16-0.74c-0.52-0.5-0.78-1.16-0.78-1.99c0-0.84,0.29-1.49,0.86-1.94
		c0.57-0.45,1.41-0.69,2.5-0.7h2.13v-0.03c0-0.36-0.13-0.65-0.38-0.85c-0.26-0.2-0.63-0.3-1.12-0.3c-0.35,0-0.76,0.05-1.22,0.16
		s-0.93,0.26-1.4,0.46l-0.8-2.14c1.47-0.6,2.87-0.9,4.19-0.9C380,460.75,380.96,461.03,381.65,461.59z M378.94,467.37
		c0.27-0.16,0.46-0.38,0.58-0.66v-0.78h-1.47c-0.65,0-0.98,0.27-0.98,0.82c0,0.28,0.09,0.49,0.26,0.64
		c0.17,0.15,0.41,0.22,0.72,0.22C378.37,467.61,378.67,467.53,378.94,467.37z"/>
	<path class="st1" d="M388.78,461.14c0.46-0.26,0.99-0.39,1.58-0.39v2.91c-0.13-0.02-0.31-0.03-0.56-0.03
		c-0.67,0-1.2,0.16-1.59,0.48c-0.39,0.32-0.58,0.76-0.58,1.31v4.16h-3.23v-8.7h3.23v1.38C387.93,461.77,388.32,461.4,388.78,461.14z
		"/>
	<path class="st1" d="M398.27,461.59c0.69,0.56,1.03,1.34,1.03,2.34v5.65h-3.17v-0.96c-0.27,0.35-0.62,0.62-1.05,0.82
		c-0.43,0.19-0.93,0.29-1.5,0.29c-0.92,0-1.64-0.25-2.16-0.74s-0.78-1.16-0.78-1.99c0-0.84,0.29-1.49,0.86-1.94
		c0.57-0.45,1.41-0.69,2.5-0.7h2.13v-0.03c0-0.36-0.13-0.65-0.38-0.85c-0.26-0.2-0.63-0.3-1.12-0.3c-0.35,0-0.76,0.05-1.22,0.16
		c-0.46,0.11-0.93,0.26-1.4,0.46l-0.8-2.14c1.47-0.6,2.87-0.9,4.19-0.9C396.62,460.75,397.58,461.03,398.27,461.59z M395.56,467.37
		c0.27-0.16,0.46-0.38,0.58-0.66v-0.78h-1.47c-0.65,0-0.98,0.27-0.98,0.82c0,0.28,0.08,0.49,0.26,0.64
		c0.17,0.15,0.41,0.22,0.72,0.22C394.99,467.61,395.29,467.53,395.56,467.37z"/>
	<path class="st1" d="M412.2,461.33c0.61,0.37,1.08,0.9,1.42,1.58c0.34,0.68,0.5,1.47,0.5,2.37c0,0.88-0.16,1.66-0.49,2.33
		c-0.33,0.67-0.79,1.18-1.38,1.54c-0.6,0.36-1.29,0.54-2.08,0.54c-0.51,0-0.98-0.1-1.39-0.29c-0.42-0.19-0.77-0.47-1.07-0.83v4.11
		h-3.23v-11.81h3.23v1.01c0.29-0.36,0.63-0.64,1.04-0.83c0.41-0.19,0.85-0.29,1.34-0.29C410.89,460.77,411.59,460.95,412.2,461.33z
		 M410.42,466.6c0.29-0.36,0.43-0.82,0.43-1.4s-0.14-1.04-0.43-1.4c-0.29-0.36-0.67-0.54-1.15-0.54c-0.47,0-0.85,0.18-1.14,0.54
		c-0.29,0.36-0.43,0.82-0.43,1.4s0.14,1.04,0.43,1.4c0.29,0.36,0.67,0.54,1.14,0.54C409.75,467.13,410.13,466.96,410.42,466.6z"/>
	<path class="st1" d="M422.37,461.59c0.69,0.56,1.03,1.34,1.03,2.34v5.65h-3.17v-0.96c-0.27,0.35-0.62,0.62-1.05,0.82
		c-0.43,0.19-0.93,0.29-1.5,0.29c-0.92,0-1.64-0.25-2.16-0.74s-0.78-1.16-0.78-1.99c0-0.84,0.29-1.49,0.86-1.94
		c0.57-0.45,1.41-0.69,2.5-0.7h2.13v-0.03c0-0.36-0.13-0.65-0.38-0.85c-0.26-0.2-0.63-0.3-1.12-0.3c-0.35,0-0.76,0.05-1.22,0.16
		c-0.46,0.11-0.93,0.26-1.4,0.46l-0.8-2.14c1.47-0.6,2.87-0.9,4.19-0.9C420.72,460.75,421.68,461.03,422.37,461.59z M419.72,457.18
		l2.53,0.93l-2.45,1.95l-2.11-0.16L419.72,457.18z M419.65,467.37c0.27-0.16,0.46-0.38,0.58-0.66v-0.78h-1.47
		c-0.65,0-0.98,0.27-0.98,0.82c0,0.28,0.08,0.49,0.26,0.64c0.17,0.15,0.41,0.22,0.72,0.22
		C419.09,467.61,419.39,467.53,419.65,467.37z"/>
	<path class="st1" d="M433.62,460.88v7.95c0,0.8-0.2,1.5-0.6,2.11c-0.4,0.61-0.96,1.07-1.68,1.4c-0.72,0.33-1.55,0.49-2.5,0.49
		c-0.77,0-1.5-0.11-2.21-0.32c-0.71-0.21-1.31-0.49-1.81-0.82l1.07-2.18c0.38,0.26,0.81,0.45,1.28,0.59
		c0.47,0.14,0.93,0.21,1.39,0.21c0.58,0,1.03-0.13,1.36-0.38c0.33-0.25,0.5-0.59,0.5-1.02v-0.88c-0.58,0.69-1.35,1.04-2.34,1.04
		c-0.7,0-1.33-0.17-1.88-0.52s-0.98-0.84-1.3-1.48s-0.47-1.38-0.47-2.21c0-0.81,0.15-1.53,0.46-2.15c0.3-0.62,0.73-1.11,1.27-1.45
		c0.54-0.34,1.16-0.51,1.86-0.51c1.01,0,1.81,0.35,2.4,1.06v-0.94H433.62z M430.01,466.27c0.27-0.33,0.41-0.76,0.41-1.3
		c0-0.55-0.14-1-0.41-1.33c-0.27-0.33-0.63-0.5-1.08-0.5c-0.44,0-0.79,0.17-1.06,0.5s-0.41,0.78-0.41,1.32
		c0,0.53,0.13,0.97,0.41,1.3c0.27,0.33,0.63,0.5,1.06,0.5C429.38,466.77,429.74,466.6,430.01,466.27z"/>
	<path class="st1" d="M438.33,457.2c0.31,0.31,0.46,0.71,0.46,1.2c0,0.49-0.16,0.89-0.46,1.2c-0.31,0.31-0.71,0.46-1.2,0.46
		c-0.49,0-0.89-0.16-1.21-0.46c-0.31-0.31-0.47-0.71-0.47-1.2c0-0.49,0.16-0.89,0.47-1.2s0.72-0.46,1.21-0.46
		C437.62,456.73,438.02,456.89,438.33,457.2z M435.53,460.88h3.23v8.7h-3.23V460.88z"/>
	<path class="st1" d="M448.35,461.16c0.47,0.27,0.84,0.66,1.1,1.16c0.26,0.5,0.39,1.08,0.39,1.74v5.52h-3.23v-4.59
		c0-0.43-0.11-0.77-0.34-1.02c-0.23-0.26-0.53-0.38-0.9-0.38c-0.44,0.01-0.78,0.17-1.04,0.48c-0.26,0.31-0.38,0.71-0.38,1.22v4.3
		h-3.23v-8.7h3.23v1.34c0.31-0.48,0.7-0.84,1.16-1.1c0.46-0.25,1-0.38,1.61-0.38C447.33,460.75,447.88,460.89,448.35,461.16z"/>
	<path class="st1" d="M458.53,461.59c0.69,0.56,1.03,1.34,1.03,2.34v5.65h-3.17v-0.96c-0.27,0.35-0.62,0.62-1.05,0.82
		c-0.43,0.19-0.93,0.29-1.5,0.29c-0.92,0-1.64-0.25-2.16-0.74c-0.52-0.5-0.78-1.16-0.78-1.99c0-0.84,0.29-1.49,0.86-1.94
		c0.57-0.45,1.41-0.69,2.5-0.7h2.13v-0.03c0-0.36-0.13-0.65-0.38-0.85c-0.26-0.2-0.63-0.3-1.12-0.3c-0.35,0-0.76,0.05-1.22,0.16
		s-0.93,0.26-1.4,0.46l-0.8-2.14c1.47-0.6,2.87-0.9,4.19-0.9C456.88,460.75,457.84,461.03,458.53,461.59z M455.81,467.37
		c0.27-0.16,0.46-0.38,0.58-0.66v-0.78h-1.47c-0.65,0-0.98,0.27-0.98,0.82c0,0.28,0.09,0.49,0.26,0.64
		c0.17,0.15,0.41,0.22,0.72,0.22C455.25,467.61,455.55,467.53,455.81,467.37z"/>
	<path class="st1" d="M467.45,457.2c0.31,0.31,0.46,0.71,0.46,1.2c0,0.49-0.15,0.89-0.46,1.2c-0.31,0.31-0.71,0.46-1.2,0.46
		s-0.89-0.16-1.21-0.46c-0.32-0.31-0.47-0.71-0.47-1.2c0-0.49,0.16-0.89,0.47-1.2c0.31-0.31,0.72-0.46,1.21-0.46
		S467.14,456.89,467.45,457.2z M464.65,460.88h3.23v8.7h-3.23V460.88z"/>
	<path class="st1" d="M477.47,461.16c0.47,0.27,0.84,0.66,1.1,1.16c0.26,0.5,0.39,1.08,0.39,1.74v5.52h-3.23v-4.59
		c0-0.43-0.12-0.77-0.34-1.02c-0.23-0.26-0.53-0.38-0.9-0.38c-0.44,0.01-0.78,0.17-1.04,0.48c-0.26,0.31-0.38,0.71-0.38,1.22v4.3
		h-3.23v-8.7h3.23v1.34c0.31-0.48,0.7-0.84,1.16-1.1c0.46-0.25,1-0.38,1.61-0.38C476.45,460.75,477,460.89,477.47,461.16z"/>
	<path class="st1" d="M483.48,457.2c0.31,0.31,0.46,0.71,0.46,1.2c0,0.49-0.15,0.89-0.46,1.2c-0.31,0.31-0.71,0.46-1.2,0.46
		s-0.89-0.16-1.21-0.46c-0.32-0.31-0.47-0.71-0.47-1.2c0-0.49,0.16-0.89,0.47-1.2c0.31-0.31,0.72-0.46,1.21-0.46
		S483.17,456.89,483.48,457.2z M480.68,460.88h3.23v8.7h-3.23V460.88z"/>
	<path class="st1" d="M490.7,463.61c-0.24-0.15-0.51-0.22-0.81-0.22c-0.43,0-0.77,0.17-1.04,0.51c-0.27,0.34-0.4,0.79-0.4,1.34
		c0,0.57,0.13,1.02,0.39,1.37c0.26,0.35,0.61,0.52,1.05,0.52c0.65,0,1.11-0.32,1.38-0.96l2.51,1.26c-0.33,0.71-0.85,1.27-1.56,1.66
		c-0.71,0.4-1.54,0.59-2.5,0.59c-0.91,0-1.7-0.18-2.38-0.55c-0.68-0.37-1.21-0.88-1.58-1.55c-0.37-0.67-0.56-1.44-0.56-2.33
		c0-0.9,0.19-1.68,0.57-2.36c0.38-0.68,0.91-1.2,1.6-1.58s1.48-0.56,2.39-0.56s1.71,0.2,2.41,0.59s1.23,0.95,1.61,1.68l-2.48,1.22
		C491.14,463.98,490.94,463.76,490.7,463.61z"/>
	<path class="st1" d="M497.65,457.2c0.31,0.31,0.46,0.71,0.46,1.2c0,0.49-0.15,0.89-0.46,1.2c-0.31,0.31-0.71,0.46-1.2,0.46
		s-0.89-0.16-1.21-0.46c-0.32-0.31-0.47-0.71-0.47-1.2c0-0.49,0.16-0.89,0.47-1.2c0.31-0.31,0.72-0.46,1.21-0.46
		S497.34,456.89,497.65,457.2z M494.85,460.88h3.23v8.7h-3.23V460.88z"/>
	<path class="st1" d="M507.01,461.59c0.69,0.56,1.03,1.34,1.03,2.34v5.65h-3.17v-0.96c-0.27,0.35-0.62,0.62-1.05,0.82
		c-0.43,0.19-0.93,0.29-1.5,0.29c-0.92,0-1.64-0.25-2.16-0.74c-0.52-0.5-0.78-1.16-0.78-1.99c0-0.84,0.29-1.49,0.86-1.94
		c0.57-0.45,1.41-0.69,2.5-0.7h2.13v-0.03c0-0.36-0.13-0.65-0.38-0.85c-0.26-0.2-0.63-0.3-1.12-0.3c-0.35,0-0.76,0.05-1.22,0.16
		c-0.46,0.11-0.93,0.26-1.4,0.46l-0.8-2.14c1.47-0.6,2.87-0.9,4.19-0.9C505.36,460.75,506.32,461.03,507.01,461.59z M504.29,467.37
		c0.27-0.16,0.46-0.38,0.58-0.66v-0.78h-1.47c-0.65,0-0.97,0.27-0.97,0.82c0,0.28,0.08,0.49,0.26,0.64
		c0.17,0.15,0.41,0.22,0.72,0.22C503.73,467.61,504.03,467.53,504.29,467.37z"/>
	<path class="st1" d="M509.83,457.71h3.23v11.87h-3.23V457.71z"/>
	<path class="st1" d="M517.42,467.12c0.28,0.28,0.42,0.63,0.42,1.07c0,0.45-0.14,0.81-0.42,1.1c-0.28,0.28-0.65,0.42-1.1,0.42
		c-0.44,0-0.8-0.14-1.08-0.42c-0.28-0.28-0.42-0.65-0.42-1.1c0-0.44,0.14-0.79,0.42-1.07c0.28-0.28,0.64-0.42,1.08-0.42
		C516.77,466.7,517.14,466.84,517.42,467.12z M514.85,458.4h3.07v2.91l-0.56,4.27h-1.94l-0.58-4.27V458.4z"/>
</g>
</svg>
